<svg width="306" height="32" viewBox="0 0 306 32" fill="none" xmlns="http://www.w3.org/2000/svg">
<path d="M3.1284 28.0612V4.26488L0.0191992 3.66437V0.00585938C0.0191992 0.00585938 13.4917 0.00585938 14.3876 0.00585938C17.7347 0.00585938 20.3287 0.284247 22.1708 0.84209C24.0118 1.39887 25.2832 2.1871 25.9839 3.20679C26.6836 4.22648 27.0346 5.52349 27.0346 7.09995C27.0346 8.54096 26.705 9.8081 26.0469 10.9025C25.3888 11.9968 24.5024 12.8629 23.3899 13.5018C22.2764 14.1407 21.0476 14.5343 19.7037 14.6836C21.6225 14.6836 23.2961 14.9599 24.7243 15.5135C26.1525 16.067 27.2586 16.8905 28.0436 17.9827C28.8276 19.076 29.2201 20.421 29.2201 22.0177C29.2201 24.0635 28.7828 25.8181 27.9071 27.2825C27.0314 28.746 25.5402 29.899 23.4326 30.7395C21.3249 31.58 18.4856 32.0002 14.9146 32.0002C13.3882 32.0002 0 32.0002 0 32.0002V28.5582L3.1284 28.0612ZM12.9178 28.6393C13.4778 28.7086 14.0453 28.7428 14.6191 28.7428C16.3694 28.7428 17.6366 28.1966 18.4216 27.1023C19.2056 26.009 19.5981 24.4453 19.5981 22.4113C19.5981 20.5031 19.2098 19.156 18.4323 18.3688C17.6547 17.5816 16.4473 17.188 14.809 17.188C13.7722 17.188 12.7429 17.188 11.7211 17.188V28.3694C11.9579 28.4814 12.3579 28.571 12.9178 28.6393ZM14.5562 13.5551C15.9428 13.5551 16.9337 13.0538 17.5288 12.0501C18.124 11.0475 18.4216 9.62251 18.4216 7.77832C18.4216 6.14959 18.0782 4.95818 17.3923 4.20301C16.7054 3.44891 15.642 3.07239 14.1989 3.07239C13.9471 3.07239 13.5194 3.07239 12.9178 3.07239C12.3152 3.07239 11.9238 3.09266 11.7414 3.13426V13.4549C12.2459 13.5221 13.1834 13.5551 14.5562 13.5551Z" fill="white"/>
<path d="M46.7263 28.4991C46.3477 29.0964 45.792 29.6628 45.056 30.1982C44.32 30.7337 43.4838 31.1678 42.5452 31.5006C41.6065 31.8334 40.6754 31.9987 39.7517 31.9987C37.8051 31.9987 36.25 31.7107 35.0884 31.1337C33.9258 30.5566 33.0789 29.6372 32.5467 28.3743C32.0144 27.1114 31.7488 25.4155 31.7488 23.2833V11.9217L29.9004 11.4129V8.07227H39.0179H39.0808L40.0471 8.42105V23.7047C40.0471 24.7489 40.1378 25.567 40.3202 26.1568C40.5026 26.7467 40.7789 27.1637 41.15 27.408C41.5212 27.6522 42.0151 27.7738 42.6305 27.7738C43.4006 27.7738 44.0278 27.6554 44.511 27.4176C44.9941 27.1808 45.4101 26.8992 45.761 26.5728V11.9217L43.2822 11.3319V8.07227H52.8402H52.9661L54.0583 8.42105V28.2645H56.1798V31.3065C55.2273 31.4974 54.2535 31.6595 53.2594 31.795C52.2653 31.9304 51.1656 31.9976 49.9614 31.9976C47.8047 31.9976 46.7263 31.0547 46.7263 29.169V28.4991Z" fill="white"/>
<path d="M62.5125 24.4597L63.7305 27.8611C63.8841 28.1267 64.283 28.3688 64.9284 28.5854C65.5726 28.8019 66.203 28.9107 66.8195 28.9107C67.7581 28.9107 68.493 28.7006 69.0252 28.2803C69.5575 27.8601 69.8231 27.3427 69.8231 26.7294C69.8231 26.2356 69.6407 25.7983 69.277 25.4175C68.9122 25.0378 68.4439 24.7007 67.869 24.4063C67.2952 24.113 66.4824 23.7461 65.4318 23.3056C64.634 22.9589 63.7935 22.5782 62.9114 22.1643C61.2165 21.3505 59.9216 20.3692 59.0246 19.2215C58.1286 18.0738 57.6807 16.652 57.6807 14.9571C57.6807 13.6623 58.0689 12.4911 58.8465 11.4437C59.624 10.3963 60.7792 9.56858 62.313 8.96167C63.8468 8.35477 65.6846 8.05078 67.8274 8.05078C69.2279 8.05078 70.4353 8.06571 71.4507 8.09558C72.4662 8.12544 73.52 8.16491 74.6122 8.21504C75.4943 8.25984 76.1663 8.28224 76.6292 8.28224V14.395H72.1334L70.9153 11.8448C70.7894 11.6624 70.4982 11.5002 70.0439 11.3562C69.5884 11.2112 69.053 11.1397 68.4365 11.1397C67.4701 11.1397 66.7171 11.337 66.1784 11.7306C65.6387 12.1242 65.3699 12.6554 65.3699 13.322C65.3699 13.8564 65.5619 14.33 65.948 14.7438C66.3331 15.1577 66.8227 15.5139 67.4189 15.8147C68.0141 16.1155 68.8364 16.4782 69.8871 16.9048L70.7276 17.2653C72.2123 17.8797 73.472 18.4973 74.5087 19.117C75.5444 19.7377 76.4063 20.5281 77.0921 21.4891C77.7779 22.4502 78.1214 23.6053 78.1214 24.9524C78.1214 26.2335 77.7641 27.4046 77.0505 28.4659C76.3359 29.5272 75.1978 30.3815 73.6373 31.0279C72.0758 31.6754 70.0972 31.9985 67.7026 31.9985C66.0782 31.9985 64.6564 31.8866 63.4383 31.6626C62.2202 31.4386 60.9595 31.1378 59.6571 30.7591C58.7462 30.5074 58.1308 30.3602 57.8087 30.3176V24.4586H62.5125V24.4597Z" fill="white"/>
<path d="M96.3857 28.4778V13.7637L94.0957 12.9702V8.99807L102.772 7.94531H102.876L104.137 8.95754V10.3612L104.095 11.3382C105.075 10.3868 106.304 9.60071 107.782 8.981C109.259 8.36023 110.866 8.05091 112.603 8.05091C114.269 8.05091 115.606 8.33996 116.615 8.917C117.624 9.49405 118.366 10.4412 118.842 11.7542C119.318 13.0672 119.557 14.8453 119.557 17.0873V28.4564L121.657 28.8436V31.9773H109.221V28.8841L111.007 28.4564V17.1022C111.007 15.9044 110.926 14.9829 110.766 14.3354C110.605 13.6891 110.338 13.2272 109.968 12.952C109.597 12.6768 109.068 12.5392 108.382 12.5392C107.219 12.5392 106.057 13.0896 104.895 14.1914V28.4767L106.995 28.8841V31.9773H94.2216V28.8841L96.3857 28.4778Z" fill="white"/>
<path d="M123.928 13.5545C124.901 11.7498 126.292 10.3813 128.097 9.44912C129.904 8.51689 132.04 8.05078 134.505 8.05078C137.669 8.05078 140.079 8.76115 141.731 10.1808C143.383 11.6016 144.231 13.6025 144.273 16.1838C144.273 17.7976 144.139 19.2183 143.874 20.4438H131.018C131.228 22.6987 131.795 24.3551 132.719 25.4122C133.644 26.4692 134.96 26.9982 136.669 26.9982C137.649 26.9982 138.689 26.8297 139.789 26.4937C140.888 26.1577 141.836 25.7791 142.635 25.3588L144.022 28.3208C143.588 28.8115 142.873 29.3427 141.879 29.9176C140.885 30.4914 139.729 30.9821 138.413 31.3874C137.096 31.7938 135.765 31.9964 134.421 31.9964C130.261 31.9964 127.23 30.9437 125.325 28.8371C123.42 26.7305 122.469 23.8261 122.469 20.1239C122.468 17.549 122.954 15.3593 123.928 13.5545ZM136.374 17.3144L136.396 15.8126C136.396 14.3118 136.221 13.1887 135.871 12.4442C135.521 11.6997 134.891 11.3274 133.98 11.3274C133.322 11.3274 132.779 11.4789 132.352 11.7829C131.924 12.0869 131.585 12.6735 131.333 13.5428C131.082 14.4132 130.948 15.6697 130.935 17.3133H136.374V17.3144Z" fill="white"/>
<path d="M151.221 24.4597L152.44 27.8611C152.593 28.1267 152.992 28.3688 153.637 28.5854C154.282 28.8019 154.912 28.9107 155.528 28.9107C156.467 28.9107 157.202 28.7006 157.734 28.2803C158.266 27.8601 158.532 27.3427 158.532 26.7294C158.532 26.2356 158.35 25.7983 157.986 25.4175C157.621 25.0378 157.153 24.7007 156.578 24.4063C156.004 24.113 155.191 23.7461 154.141 23.3056C153.343 22.9589 152.502 22.5782 151.62 22.1643C149.925 21.3505 148.631 20.3692 147.734 19.2215C146.838 18.0738 146.39 16.652 146.39 14.9571C146.39 13.6623 146.778 12.4911 147.555 11.4437C148.333 10.3963 149.488 9.56858 151.022 8.96167C152.556 8.35477 154.394 8.05078 156.536 8.05078C157.937 8.05078 159.144 8.06571 160.16 8.09558C161.175 8.12544 162.229 8.16491 163.321 8.21504C164.203 8.25984 164.875 8.28224 165.338 8.28224V14.395H160.842L159.624 11.8448C159.498 11.6624 159.207 11.5002 158.753 11.3562C158.297 11.2112 157.762 11.1397 157.145 11.1397C156.179 11.1397 155.426 11.337 154.887 11.7306C154.348 12.1242 154.079 12.6554 154.079 13.322C154.079 13.8564 154.271 14.33 154.657 14.7438C155.042 15.1577 155.532 15.5139 156.128 15.8147C156.723 16.1155 157.545 16.4782 158.596 16.9048L159.437 17.2653C160.921 17.8797 162.181 18.4973 163.218 19.117C164.253 19.7377 165.115 20.5281 165.801 21.4891C166.487 22.4502 166.83 23.6053 166.83 24.9524C166.83 26.2335 166.473 27.4046 165.759 28.4659C165.045 29.5272 163.907 30.3815 162.346 31.0279C160.785 31.6754 158.806 31.9985 156.412 31.9985C154.787 31.9985 153.365 31.8866 152.147 31.6626C150.929 31.4386 149.668 31.1378 148.366 30.7591C147.455 30.5074 146.84 30.3602 146.518 30.3176V24.4586H151.221V24.4597Z" fill="white"/>
<path d="M173.467 24.4597L174.685 27.8611C174.838 28.1267 175.237 28.3688 175.882 28.5854C176.527 28.8019 177.156 28.9107 177.774 28.9107C178.711 28.9107 179.447 28.7006 179.979 28.2803C180.512 27.8601 180.777 27.3427 180.777 26.7294C180.777 26.2356 180.595 25.7983 180.231 25.4175C179.866 25.0378 179.397 24.7007 178.823 24.4063C178.248 24.113 177.437 23.7461 176.386 23.3056C175.588 22.9589 174.748 22.5782 173.865 22.1643C172.171 21.3505 170.875 20.3692 169.979 19.2215C169.082 18.0738 168.635 16.652 168.635 14.9571C168.635 13.6623 169.023 12.4911 169.801 11.4437C170.578 10.3963 171.733 9.56858 173.267 8.96167C174.801 8.35477 176.639 8.05078 178.782 8.05078C180.181 8.05078 181.389 8.06571 182.405 8.09558C183.42 8.12544 184.474 8.16491 185.566 8.21504C186.448 8.25984 187.12 8.28224 187.583 8.28224V14.395H183.087L181.869 11.8448C181.744 11.6624 181.452 11.5002 180.998 11.3562C180.543 11.2112 180.007 11.1397 179.391 11.1397C178.424 11.1397 177.671 11.337 177.133 11.7306C176.593 12.1242 176.324 12.6554 176.324 13.322C176.324 13.8564 176.516 14.33 176.902 14.7438C177.287 15.1577 177.777 15.5139 178.373 15.8147C178.968 16.1155 179.791 16.4782 180.841 16.9048L181.682 17.2653C183.165 17.8797 184.426 18.4973 185.463 19.117C186.5 19.7377 187.36 20.5281 188.046 21.4891C188.732 22.4502 189.075 23.6053 189.075 24.9524C189.075 26.2335 188.718 27.4046 188.005 28.4659C187.29 29.5272 186.153 30.3815 184.591 31.0279C183.029 31.6754 181.051 31.9985 178.657 31.9985C177.032 31.9985 175.61 31.8866 174.392 31.6626C173.174 31.4386 171.914 31.1378 170.611 30.7591C169.7 30.5074 169.085 30.3602 168.763 30.3176V24.4586H173.467V24.4597Z" fill="white"/>
<path d="M193.17 28.0463V4.1839L190.123 3.56313V0.00488281C190.123 0.00488281 204.191 0.00488281 204.891 0.00488281C210.1 0.00488281 214.036 1.26349 216.696 3.78179C219.356 6.30008 220.687 9.96712 220.687 14.7829C220.687 18.0446 220.054 20.9789 218.787 23.5868C217.518 26.1936 215.681 28.2447 213.272 29.738C210.864 31.2313 208.006 31.9768 204.702 31.9768C203.904 31.9768 190.039 31.9768 190.039 31.9768V28.5423L193.17 28.0463ZM204.387 28.5743C206.6 28.5743 208.276 27.5696 209.418 25.56C210.56 23.5505 211.13 20.3368 211.13 15.9167C211.13 7.43709 208.77 3.19728 204.051 3.19728C203.337 3.19728 202.791 3.25274 202.413 3.3626C202.035 3.47247 201.818 3.53433 201.761 3.5482V28.1487C202.336 28.4325 203.211 28.5743 204.387 28.5743Z" fill="white"/>
<path d="M223.279 13.5545C224.253 11.7498 225.643 10.3813 227.449 9.44912C229.256 8.51689 231.391 8.05078 233.856 8.05078C237.021 8.05078 239.43 8.76115 241.082 10.1808C242.735 11.6016 243.583 13.6025 243.624 16.1838C243.624 17.7976 243.491 19.2183 243.225 20.4438H230.369C230.579 22.6987 231.147 24.3551 232.071 25.4122C232.994 26.4692 234.31 26.9982 236.02 26.9982C237 26.9982 238.04 26.8297 239.14 26.4937C240.24 26.1577 241.188 25.7791 241.987 25.3588L243.373 28.3208C242.939 28.8115 242.225 29.3427 241.231 29.9176C240.236 30.4914 239.08 30.9821 237.764 31.3874C236.448 31.7938 235.117 31.9964 233.773 31.9964C229.613 31.9964 226.582 30.9437 224.677 28.8371C222.772 26.7305 221.82 23.8261 221.82 20.1239C221.819 17.549 222.306 15.3593 223.279 13.5545ZM235.726 17.3144L235.747 15.8126C235.747 14.3118 235.572 13.1887 235.222 12.4442C234.873 11.6997 234.242 11.3274 233.331 11.3274C232.673 11.3274 232.13 11.4789 231.704 11.7829C231.276 12.0869 230.937 12.6735 230.685 13.5428C230.433 14.4121 230.3 15.6697 230.286 17.3133H235.726V17.3144Z" fill="white"/>
<path d="M250.574 24.4597L251.792 27.8611C251.946 28.1267 252.346 28.3688 252.99 28.5854C253.634 28.8019 254.263 28.9107 254.881 28.9107C255.819 28.9107 256.555 28.7006 257.087 28.2803C257.619 27.8601 257.885 27.3427 257.885 26.7294C257.885 26.2356 257.702 25.7983 257.338 25.4175C256.974 25.0378 256.505 24.7007 255.931 24.4063C255.356 24.113 254.544 23.7461 253.493 23.3056C252.695 22.9589 251.855 22.5782 250.973 22.1643C249.278 21.3505 247.982 20.3692 247.086 19.2215C246.19 18.0738 245.742 16.652 245.742 14.9571C245.742 13.6623 246.13 12.4911 246.908 11.4437C247.686 10.3963 248.841 9.56858 250.375 8.96167C251.908 8.35477 253.746 8.05078 255.889 8.05078C257.289 8.05078 258.497 8.06571 259.512 8.09558C260.528 8.12544 261.582 8.16491 262.674 8.21504C263.556 8.25984 264.228 8.28224 264.691 8.28224V14.395H260.195L258.977 11.8448C258.851 11.6624 258.56 11.5002 258.105 11.3562C257.65 11.2112 257.114 11.1397 256.498 11.1397C255.532 11.1397 254.779 11.337 254.24 11.7306C253.701 12.1242 253.431 12.6554 253.431 13.322C253.431 13.8564 253.623 14.33 254.01 14.7438C254.395 15.1577 254.884 15.5139 255.48 15.8147C256.076 16.1155 256.898 16.4782 257.949 16.9048L258.789 17.2653C260.273 17.8797 261.534 18.4973 262.57 19.117C263.607 19.7377 264.468 20.5281 265.154 21.4891C265.839 22.4502 266.183 23.6053 266.183 24.9524C266.183 26.2335 265.826 27.4046 265.112 28.4659C264.397 29.5272 263.26 30.3815 261.699 31.0279C260.137 31.6754 258.159 31.9985 255.764 31.9985C254.14 31.9985 252.718 31.8866 251.5 31.6626C250.282 31.4386 249.021 31.1378 247.719 30.7591C246.808 30.5074 246.192 30.3602 245.87 30.3176V24.4586H250.574V24.4597Z" fill="white"/>
<path d="M269.33 28.3646V4.7262L266.578 4.09582V1.11355L276.073 0H276.178L277.606 1.05062V17.3358L277.459 19.2472L284.601 11.6006L281.47 11.1387V8.07218H293.843V11.1387L290.166 11.7264L286.322 15.2761L292.981 28.3422L294.998 28.7838V31.9773H282.247V28.8052L283.844 28.3433L280.505 20.5922L277.417 23.8059L277.564 26.0117V28.3433L279.728 28.8052V31.9773H267.167V28.7838L269.33 28.3646Z" fill="white"/>
<path d="M90.2703 28.3647V8.42105L89.1781 8.07227H89.0512H79.4932V11.3308L81.9091 11.9068V28.3647L79.5561 28.785V31.9774H92.4963V28.785L90.2703 28.3647Z" fill="white"/>
<path d="M89.8522 0.0507812H82.3271V6.00252H89.8522V0.0507812Z" fill="white"/>
<path d="M305.236 23.3923V31.984H296.624V23.3721L305.236 23.3923Z" fill="#D20000"/>
</svg>
